solid OpenSCAD_Model
  facet normal -1 0 0
    outer loop
      vertex -12.325 -4.97965 -1.1
      vertex -12.325 4.97965 0.299999
      vertex -12.325 4.97965 -1.1
    endloop
  endfacet
  facet normal -1 -0 0
    outer loop
      vertex -12.325 4.97965 0.299999
      vertex -12.325 -4.97965 -1.1
      vertex -12.325 -4.97965 0.299999
    endloop
  endfacet
  facet normal 0.5 0.866025 -0
    outer loop
      vertex -12.325 -4.97965 -1.1
      vertex -15 -3.43523 0.299999
      vertex -12.325 -4.97965 0.299999
    endloop
  endfacet
  facet normal 0.5 0.866025 0
    outer loop
      vertex -15 -3.43523 0.299999
      vertex -12.325 -4.97965 -1.1
      vertex -15 -3.43523 -1.1
    endloop
  endfacet
  facet normal 0 0 -1
    outer loop
      vertex -15 -3.43523 0.299999
      vertex -12.325 4.97965 0.299999
      vertex -12.325 -4.97965 0.299999
    endloop
  endfacet
  facet normal 0 0 -1
    outer loop
      vertex -12.325 4.97965 0.299999
      vertex -15 -3.43523 0.299999
      vertex -15 3.43523 0.299999
    endloop
  endfacet
  facet normal 0.5 -0.866025 0
    outer loop
      vertex -15 3.43523 -1.1
      vertex -12.325 4.97965 0.299999
      vertex -15 3.43523 0.299999
    endloop
  endfacet
  facet normal 0.5 -0.866025 0
    outer loop
      vertex -12.325 4.97965 0.299999
      vertex -15 3.43523 -1.1
      vertex -12.325 4.97965 -1.1
    endloop
  endfacet
  facet normal 0 -1 0
    outer loop
      vertex -4.97965 -12.325 -1.1
      vertex 4.97965 -12.325 0.299999
      vertex -4.97965 -12.325 0.299999
    endloop
  endfacet
  facet normal 0 -1 -0
    outer loop
      vertex 4.97965 -12.325 0.299999
      vertex -4.97965 -12.325 -1.1
      vertex 4.97965 -12.325 -1.1
    endloop
  endfacet
  facet normal -0.866025 0.5 0
    outer loop
      vertex 3.43523 -15 -1.1
      vertex 4.97965 -12.325 0.299999
      vertex 4.97965 -12.325 -1.1
    endloop
  endfacet
  facet normal -0.866025 0.5 0
    outer loop
      vertex 4.97965 -12.325 0.299999
      vertex 3.43523 -15 -1.1
      vertex 3.43523 -15 0.299999
    endloop
  endfacet
  facet normal 0.866025 0.5 0
    outer loop
      vertex -3.43523 -15 0.299999
      vertex -4.97965 -12.325 -1.1
      vertex -4.97965 -12.325 0.299999
    endloop
  endfacet
  facet normal 0.866025 0.5 0
    outer loop
      vertex -4.97965 -12.325 -1.1
      vertex -3.43523 -15 0.299999
      vertex -3.43523 -15 -1.1
    endloop
  endfacet
  facet normal 0 0 -1
    outer loop
      vertex -3.43523 -15 0.299999
      vertex 4.97965 -12.325 0.299999
      vertex 3.43523 -15 0.299999
    endloop
  endfacet
  facet normal -0 0 -1
    outer loop
      vertex 4.97965 -12.325 0.299999
      vertex -3.43523 -15 0.299999
      vertex -4.97965 -12.325 0.299999
    endloop
  endfacet
  facet normal 1 -0 0
    outer loop
      vertex 12.325 -4.97965 0.299999
      vertex 12.325 4.97965 -1.1
      vertex 12.325 4.97965 0.299999
    endloop
  endfacet
  facet normal 1 0 0
    outer loop
      vertex 12.325 4.97965 -1.1
      vertex 12.325 -4.97965 0.299999
      vertex 12.325 -4.97965 -1.1
    endloop
  endfacet
  facet normal -0.5 -0.866025 0
    outer loop
      vertex 12.325 4.97965 -1.1
      vertex 15 3.43523 0.299999
      vertex 12.325 4.97965 0.299999
    endloop
  endfacet
  facet normal -0.5 -0.866025 -0
    outer loop
      vertex 15 3.43523 0.299999
      vertex 12.325 4.97965 -1.1
      vertex 15 3.43523 -1.1
    endloop
  endfacet
  facet normal -0.5 0.866025 0
    outer loop
      vertex 15 -3.43523 -1.1
      vertex 12.325 -4.97965 0.299999
      vertex 15 -3.43523 0.299999
    endloop
  endfacet
  facet normal -0.5 0.866025 0
    outer loop
      vertex 12.325 -4.97965 0.299999
      vertex 15 -3.43523 -1.1
      vertex 12.325 -4.97965 -1.1
    endloop
  endfacet
  facet normal 0 0 -1
    outer loop
      vertex 12.325 -4.97965 0.299999
      vertex 15 3.43523 0.299999
      vertex 15 -3.43523 0.299999
    endloop
  endfacet
  facet normal -0 0 -1
    outer loop
      vertex 15 3.43523 0.299999
      vertex 12.325 -4.97965 0.299999
      vertex 12.325 4.97965 0.299999
    endloop
  endfacet
  facet normal 0 1 -0
    outer loop
      vertex 4.97965 12.325 -1.1
      vertex -4.97965 12.325 0.299999
      vertex 4.97965 12.325 0.299999
    endloop
  endfacet
  facet normal 0 1 0
    outer loop
      vertex -4.97965 12.325 0.299999
      vertex 4.97965 12.325 -1.1
      vertex -4.97965 12.325 -1.1
    endloop
  endfacet
  facet normal 0.866025 -0.5 0
    outer loop
      vertex -4.97965 12.325 0.299999
      vertex -3.43523 15 -1.1
      vertex -3.43523 15 0.299999
    endloop
  endfacet
  facet normal 0.866025 -0.5 0
    outer loop
      vertex -3.43523 15 -1.1
      vertex -4.97965 12.325 0.299999
      vertex -4.97965 12.325 -1.1
    endloop
  endfacet
  facet normal 0 0 -1
    outer loop
      vertex 4.97965 12.325 0.299999
      vertex -3.43523 15 0.299999
      vertex 3.43523 15 0.299999
    endloop
  endfacet
  facet normal 0 -0 -1
    outer loop
      vertex -3.43523 15 0.299999
      vertex 4.97965 12.325 0.299999
      vertex -4.97965 12.325 0.299999
    endloop
  endfacet
  facet normal -0.866025 -0.5 0
    outer loop
      vertex 4.97965 12.325 -1.1
      vertex 3.43523 15 0.299999
      vertex 3.43523 15 -1.1
    endloop
  endfacet
  facet normal -0.866025 -0.5 0
    outer loop
      vertex 3.43523 15 0.299999
      vertex 4.97965 12.325 -1.1
      vertex 4.97965 12.325 0.299999
    endloop
  endfacet
  facet normal -1 0 0
    outer loop
      vertex -15 -3.43523 -1.1
      vertex -15 -15 -1.1
      vertex -15 -3.43523 0.299999
    endloop
  endfacet
  facet normal -1 0 0
    outer loop
      vertex -15 3.43523 0.299999
      vertex -15 15 -1.1
      vertex -15 3.43523 -1.1
    endloop
  endfacet
  facet normal -1 0 0
    outer loop
      vertex -15 15 -1.1
      vertex -15 3.43523 0.299999
      vertex -15 15 1.1
    endloop
  endfacet
  facet normal -1 0 0
    outer loop
      vertex -15 -3.43523 0.299999
      vertex -15 15 1.1
      vertex -15 3.43523 0.299999
    endloop
  endfacet
  facet normal -1 0 0
    outer loop
      vertex -15 -3.43523 0.299999
      vertex -15 -15 1.1
      vertex -15 15 1.1
    endloop
  endfacet
  facet normal -1 0 0
    outer loop
      vertex -15 -15 1.1
      vertex -15 -3.43523 0.299999
      vertex -15 -15 -1.1
    endloop
  endfacet
  facet normal -0 0 1
    outer loop
      vertex -15 15 1.1
      vertex 15 -15 1.1
      vertex 15 15 1.1
    endloop
  endfacet
  facet normal 0 0 1
    outer loop
      vertex 15 -15 1.1
      vertex -15 15 1.1
      vertex -15 -15 1.1
    endloop
  endfacet
  facet normal 1 0 0
    outer loop
      vertex 15 15 1.1
      vertex 15 3.43523 0.299999
      vertex 15 15 -1.1
    endloop
  endfacet
  facet normal 1 0 0
    outer loop
      vertex 15 15 1.1
      vertex 15 -3.43523 0.299999
      vertex 15 3.43523 0.299999
    endloop
  endfacet
  facet normal 1 -0 0
    outer loop
      vertex 15 -15 1.1
      vertex 15 -3.43523 0.299999
      vertex 15 15 1.1
    endloop
  endfacet
  facet normal 1 0 0
    outer loop
      vertex 15 -15 -1.1
      vertex 15 -3.43523 0.299999
      vertex 15 -15 1.1
    endloop
  endfacet
  facet normal 1 0 0
    outer loop
      vertex 15 -3.43523 0.299999
      vertex 15 -15 -1.1
      vertex 15 -3.43523 -1.1
    endloop
  endfacet
  facet normal 1 0 0
    outer loop
      vertex 15 15 -1.1
      vertex 15 3.43523 0.299999
      vertex 15 3.43523 -1.1
    endloop
  endfacet
  facet normal 0 0 -1
    outer loop
      vertex -4.97965 -12.325 -1.1
      vertex -12.325 -4.97965 -1.1
      vertex -4.97965 12.325 -1.1
    endloop
  endfacet
  facet normal 0 0 -1
    outer loop
      vertex -15 -15 -1.1
      vertex -4.97965 -12.325 -1.1
      vertex -3.43523 -15 -1.1
    endloop
  endfacet
  facet normal -0 0 -1
    outer loop
      vertex -4.97965 -12.325 -1.1
      vertex -15 -15 -1.1
      vertex -12.325 -4.97965 -1.1
    endloop
  endfacet
  facet normal -0 0 -1
    outer loop
      vertex -12.325 -4.97965 -1.1
      vertex -15 -15 -1.1
      vertex -15 -3.43523 -1.1
    endloop
  endfacet
  facet normal 0 0 -1
    outer loop
      vertex -4.97965 -12.325 -1.1
      vertex 4.97965 12.325 -1.1
      vertex 4.97965 -12.325 -1.1
    endloop
  endfacet
  facet normal -0 0 -1
    outer loop
      vertex 4.97965 12.325 -1.1
      vertex -4.97965 -12.325 -1.1
      vertex -4.97965 12.325 -1.1
    endloop
  endfacet
  facet normal 0 0 -1
    outer loop
      vertex 15 -15 -1.1
      vertex 12.325 -4.97965 -1.1
      vertex 15 -3.43523 -1.1
    endloop
  endfacet
  facet normal -0 0 -1
    outer loop
      vertex 12.325 -4.97965 -1.1
      vertex 4.97965 -12.325 -1.1
      vertex 12.325 4.97965 -1.1
    endloop
  endfacet
  facet normal 0 0 -1
    outer loop
      vertex 15 -15 -1.1
      vertex 4.97965 -12.325 -1.1
      vertex 12.325 -4.97965 -1.1
    endloop
  endfacet
  facet normal 0 -0 -1
    outer loop
      vertex 4.97965 -12.325 -1.1
      vertex 15 -15 -1.1
      vertex 3.43523 -15 -1.1
    endloop
  endfacet
  facet normal 0 0 -1
    outer loop
      vertex 12.325 4.97965 -1.1
      vertex 15 15 -1.1
      vertex 15 3.43523 -1.1
    endloop
  endfacet
  facet normal 0 0 -1
    outer loop
      vertex 4.97965 12.325 -1.1
      vertex 12.325 4.97965 -1.1
      vertex 4.97965 -12.325 -1.1
    endloop
  endfacet
  facet normal 0 0 -1
    outer loop
      vertex 12.325 4.97965 -1.1
      vertex 4.97965 12.325 -1.1
      vertex 15 15 -1.1
    endloop
  endfacet
  facet normal -0 0 -1
    outer loop
      vertex 15 15 -1.1
      vertex 4.97965 12.325 -1.1
      vertex 3.43523 15 -1.1
    endloop
  endfacet
  facet normal 0 0 -1
    outer loop
      vertex -12.325 4.97965 -1.1
      vertex -4.97965 12.325 -1.1
      vertex -12.325 -4.97965 -1.1
    endloop
  endfacet
  facet normal 0 0 -1
    outer loop
      vertex -15 15 -1.1
      vertex -4.97965 12.325 -1.1
      vertex -12.325 4.97965 -1.1
    endloop
  endfacet
  facet normal 0 0 -1
    outer loop
      vertex -15 15 -1.1
      vertex -12.325 4.97965 -1.1
      vertex -15 3.43523 -1.1
    endloop
  endfacet
  facet normal 0 0 -1
    outer loop
      vertex -4.97965 12.325 -1.1
      vertex -15 15 -1.1
      vertex -3.43523 15 -1.1
    endloop
  endfacet
  facet normal 0 -1 0
    outer loop
      vertex -15 -15 1.1
      vertex -3.43523 -15 0.299999
      vertex 15 -15 1.1
    endloop
  endfacet
  facet normal 0 -1 0
    outer loop
      vertex -15 -15 -1.1
      vertex -3.43523 -15 0.299999
      vertex -15 -15 1.1
    endloop
  endfacet
  facet normal 0 -1 -0
    outer loop
      vertex -3.43523 -15 0.299999
      vertex -15 -15 -1.1
      vertex -3.43523 -15 -1.1
    endloop
  endfacet
  facet normal 0 -1 0
    outer loop
      vertex 3.43523 -15 0.299999
      vertex 15 -15 1.1
      vertex -3.43523 -15 0.299999
    endloop
  endfacet
  facet normal 0 -1 0
    outer loop
      vertex 15 -15 -1.1
      vertex 3.43523 -15 0.299999
      vertex 3.43523 -15 -1.1
    endloop
  endfacet
  facet normal 0 -1 0
    outer loop
      vertex 3.43523 -15 0.299999
      vertex 15 -15 -1.1
      vertex 15 -15 1.1
    endloop
  endfacet
  facet normal 0 1 0
    outer loop
      vertex 15 15 1.1
      vertex 3.43523 15 0.299999
      vertex -15 15 1.1
    endloop
  endfacet
  facet normal 0 1 -0
    outer loop
      vertex 15 15 -1.1
      vertex 3.43523 15 0.299999
      vertex 15 15 1.1
    endloop
  endfacet
  facet normal 0 1 0
    outer loop
      vertex 3.43523 15 0.299999
      vertex 15 15 -1.1
      vertex 3.43523 15 -1.1
    endloop
  endfacet
  facet normal 0 1 -0
    outer loop
      vertex -3.43523 15 0.299999
      vertex -15 15 1.1
      vertex 3.43523 15 0.299999
    endloop
  endfacet
  facet normal 0 1 0
    outer loop
      vertex -15 15 -1.1
      vertex -3.43523 15 0.299999
      vertex -3.43523 15 -1.1
    endloop
  endfacet
  facet normal 0 1 0
    outer loop
      vertex -3.43523 15 0.299999
      vertex -15 15 -1.1
      vertex -15 15 1.1
    endloop
  endfacet
endsolid OpenSCAD_Model
