solid OpenSCAD_Model
  facet normal -1 0 0
    outer loop
      vertex -17.5 -4.33013 -1.1
      vertex -17.5 4.33013 0
      vertex -17.5 4.33013 -1.1
    endloop
  endfacet
  facet normal -1 -0 0
    outer loop
      vertex -17.5 4.33013 0
      vertex -17.5 -4.33013 -1.1
      vertex -17.5 -4.33013 0
    endloop
  endfacet
  facet normal 0.5 0.866025 -0
    outer loop
      vertex -15 2.88675 -1.1
      vertex -17.5 4.33013 0
      vertex -15 2.88675 0
    endloop
  endfacet
  facet normal 0.5 0.866025 0
    outer loop
      vertex -17.5 4.33013 0
      vertex -15 2.88675 -1.1
      vertex -17.5 4.33013 -1.1
    endloop
  endfacet
  facet normal 0.5 -0.866025 0
    outer loop
      vertex -17.5 -4.33013 -1.1
      vertex -15 -2.88675 0
      vertex -17.5 -4.33013 0
    endloop
  endfacet
  facet normal 0.5 -0.866025 0
    outer loop
      vertex -15 -2.88675 0
      vertex -17.5 -4.33013 -1.1
      vertex -15 -2.88675 -1.1
    endloop
  endfacet
  facet normal 0 0 1
    outer loop
      vertex -17.5 4.33013 0
      vertex -15 -2.88675 0
      vertex -15 2.88675 0
    endloop
  endfacet
  facet normal 0 0 1
    outer loop
      vertex -15 -2.88675 0
      vertex -17.5 4.33013 0
      vertex -17.5 -4.33013 0
    endloop
  endfacet
  facet normal 0 0 -1
    outer loop
      vertex -17.5 -4.33013 -1.1
      vertex -15 2.88675 -1.1
      vertex -15 -2.88675 -1.1
    endloop
  endfacet
  facet normal -0 0 -1
    outer loop
      vertex -15 2.88675 -1.1
      vertex -17.5 -4.33013 -1.1
      vertex -17.5 4.33013 -1.1
    endloop
  endfacet
  facet normal 0 0 -1
    outer loop
      vertex 4.33013 -17.5 -1.1
      vertex -2.88675 -15 -1.1
      vertex 2.88675 -15 -1.1
    endloop
  endfacet
  facet normal 0 -0 -1
    outer loop
      vertex -2.88675 -15 -1.1
      vertex 4.33013 -17.5 -1.1
      vertex -4.33013 -17.5 -1.1
    endloop
  endfacet
  facet normal 0 0 -1
    outer loop
      vertex 2.88675 -15 -1.1
      vertex 15 -2.88675 -1.1
      vertex 15 -15 -1.1
    endloop
  endfacet
  facet normal -0 0 -1
    outer loop
      vertex 15 -2.88675 -1.1
      vertex 2.88675 -15 -1.1
      vertex 15 2.88675 -1.1
    endloop
  endfacet
  facet normal 0 0 -1
    outer loop
      vertex -15 2.88675 -1.1
      vertex 15 2.88675 -1.1
      vertex 2.88675 -15 -1.1
    endloop
  endfacet
  facet normal 0 0 -1
    outer loop
      vertex -15 2.88675 -1.1
      vertex 2.88675 -15 -1.1
      vertex -2.88675 -15 -1.1
    endloop
  endfacet
  facet normal 0 0 -1
    outer loop
      vertex -15 -2.88675 -1.1
      vertex -2.88675 -15 -1.1
      vertex -15 -15 -1.1
    endloop
  endfacet
  facet normal 0 0 -1
    outer loop
      vertex -15 2.88675 -1.1
      vertex -2.88675 -15 -1.1
      vertex -15 -2.88675 -1.1
    endloop
  endfacet
  facet normal 0 0 -1
    outer loop
      vertex 15 2.88675 -1.1
      vertex -15 2.88675 -1.1
      vertex 15 18 -1.1
    endloop
  endfacet
  facet normal -0 0 -1
    outer loop
      vertex 15 18 -1.1
      vertex -15 2.88675 -1.1
      vertex -15 18 -1.1
    endloop
  endfacet
  facet normal 0 0 -1
    outer loop
      vertex 15 -2.88675 -1.1
      vertex 17.5 4.33013 -1.1
      vertex 17.5 -4.33013 -1.1
    endloop
  endfacet
  facet normal 0 0 -1
    outer loop
      vertex 17.5 4.33013 -1.1
      vertex 15 -2.88675 -1.1
      vertex 15 2.88675 -1.1
    endloop
  endfacet
  facet normal 0 -1 0
    outer loop
      vertex -4.33013 -17.5 -1.1
      vertex 4.33013 -17.5 0
      vertex -4.33013 -17.5 0
    endloop
  endfacet
  facet normal 0 -1 -0
    outer loop
      vertex 4.33013 -17.5 0
      vertex -4.33013 -17.5 -1.1
      vertex 4.33013 -17.5 -1.1
    endloop
  endfacet
  facet normal -0.866025 0.5 0
    outer loop
      vertex -4.33013 -17.5 -1.1
      vertex -2.88675 -15 0
      vertex -2.88675 -15 -1.1
    endloop
  endfacet
  facet normal -0.866025 0.5 0
    outer loop
      vertex -2.88675 -15 0
      vertex -4.33013 -17.5 -1.1
      vertex -4.33013 -17.5 0
    endloop
  endfacet
  facet normal -0 0 1
    outer loop
      vertex -2.88675 -15 0
      vertex 4.33013 -17.5 0
      vertex 2.88675 -15 0
    endloop
  endfacet
  facet normal 0 0 1
    outer loop
      vertex 4.33013 -17.5 0
      vertex -2.88675 -15 0
      vertex -4.33013 -17.5 0
    endloop
  endfacet
  facet normal 0.866025 0.5 0
    outer loop
      vertex 4.33013 -17.5 0
      vertex 2.88675 -15 -1.1
      vertex 2.88675 -15 0
    endloop
  endfacet
  facet normal 0.866025 0.5 0
    outer loop
      vertex 2.88675 -15 -1.1
      vertex 4.33013 -17.5 0
      vertex 4.33013 -17.5 -1.1
    endloop
  endfacet
  facet normal 1 -0 0
    outer loop
      vertex 17.5 -4.33013 0
      vertex 17.5 4.33013 -1.1
      vertex 17.5 4.33013 0
    endloop
  endfacet
  facet normal 1 0 0
    outer loop
      vertex 17.5 4.33013 -1.1
      vertex 17.5 -4.33013 0
      vertex 17.5 -4.33013 -1.1
    endloop
  endfacet
  facet normal -0.5 -0.866025 0
    outer loop
      vertex 15 -2.88675 -1.1
      vertex 17.5 -4.33013 0
      vertex 15 -2.88675 0
    endloop
  endfacet
  facet normal -0.5 -0.866025 -0
    outer loop
      vertex 17.5 -4.33013 0
      vertex 15 -2.88675 -1.1
      vertex 17.5 -4.33013 -1.1
    endloop
  endfacet
  facet normal -0 0 1
    outer loop
      vertex 15 2.88675 0
      vertex 17.5 -4.33013 0
      vertex 17.5 4.33013 0
    endloop
  endfacet
  facet normal 0 0 1
    outer loop
      vertex 17.5 -4.33013 0
      vertex 15 2.88675 0
      vertex 15 -2.88675 0
    endloop
  endfacet
  facet normal -0.5 0.866025 0
    outer loop
      vertex 17.5 4.33013 -1.1
      vertex 15 2.88675 0
      vertex 17.5 4.33013 0
    endloop
  endfacet
  facet normal -0.5 0.866025 0
    outer loop
      vertex 15 2.88675 0
      vertex 17.5 4.33013 -1.1
      vertex 15 2.88675 -1.1
    endloop
  endfacet
  facet normal -1 0 0
    outer loop
      vertex -15 -2.88675 -1.1
      vertex -15 -15 -1.1
      vertex -15 -2.88675 0
    endloop
  endfacet
  facet normal -1 0 0
    outer loop
      vertex -15 18 -1.1
      vertex -15 15 1.1
      vertex -15 18 2.2
    endloop
  endfacet
  facet normal -1 0 0
    outer loop
      vertex -15 2.88675 -1.1
      vertex -15 15 1.1
      vertex -15 18 -1.1
    endloop
  endfacet
  facet normal -1 0 0
    outer loop
      vertex -15 2.88675 0
      vertex -15 15 1.1
      vertex -15 2.88675 -1.1
    endloop
  endfacet
  facet normal -1 0 0
    outer loop
      vertex -15 -2.88675 0
      vertex -15 15 1.1
      vertex -15 2.88675 0
    endloop
  endfacet
  facet normal -1 0 0
    outer loop
      vertex -15 -2.88675 0
      vertex -15 -15 1.1
      vertex -15 15 1.1
    endloop
  endfacet
  facet normal -1 0 0
    outer loop
      vertex -15 -15 1.1
      vertex -15 -2.88675 0
      vertex -15 -15 -1.1
    endloop
  endfacet
  facet normal -1 -0 0
    outer loop
      vertex -15 18 2.2
      vertex -15 15 1.1
      vertex -15 15 2.2
    endloop
  endfacet
  facet normal -0 0 1
    outer loop
      vertex -15 18 2.2
      vertex 15 15 2.2
      vertex 15 18 2.2
    endloop
  endfacet
  facet normal 0 0 1
    outer loop
      vertex 15 15 2.2
      vertex -15 18 2.2
      vertex -15 15 2.2
    endloop
  endfacet
  facet normal 1 0 0
    outer loop
      vertex 15 15 1.1
      vertex 15 -2.88675 0
      vertex 15 2.88675 0
    endloop
  endfacet
  facet normal 1 -0 0
    outer loop
      vertex 15 -15 1.1
      vertex 15 -2.88675 0
      vertex 15 15 1.1
    endloop
  endfacet
  facet normal 1 0 0
    outer loop
      vertex 15 -15 -1.1
      vertex 15 -2.88675 0
      vertex 15 -15 1.1
    endloop
  endfacet
  facet normal 1 0 0
    outer loop
      vertex 15 -2.88675 0
      vertex 15 -15 -1.1
      vertex 15 -2.88675 -1.1
    endloop
  endfacet
  facet normal 1 0 0
    outer loop
      vertex 15 15 1.1
      vertex 15 18 2.2
      vertex 15 15 2.2
    endloop
  endfacet
  facet normal 1 0 0
    outer loop
      vertex 15 18 2.2
      vertex 15 15 1.1
      vertex 15 18 -1.1
    endloop
  endfacet
  facet normal 1 0 0
    outer loop
      vertex 15 2.88675 -1.1
      vertex 15 15 1.1
      vertex 15 2.88675 0
    endloop
  endfacet
  facet normal 1 0 0
    outer loop
      vertex 15 15 1.1
      vertex 15 2.88675 -1.1
      vertex 15 18 -1.1
    endloop
  endfacet
  facet normal 0 1 -0
    outer loop
      vertex 15 18 -1.1
      vertex -15 18 2.2
      vertex 15 18 2.2
    endloop
  endfacet
  facet normal 0 1 0
    outer loop
      vertex -15 18 2.2
      vertex 15 18 -1.1
      vertex -15 18 -1.1
    endloop
  endfacet
  facet normal 0 -1 0
    outer loop
      vertex -15 15 1.1
      vertex 15 15 2.2
      vertex -15 15 2.2
    endloop
  endfacet
  facet normal 0 -1 -0
    outer loop
      vertex 15 15 2.2
      vertex -15 15 1.1
      vertex 15 15 1.1
    endloop
  endfacet
  facet normal -0 0 1
    outer loop
      vertex -15 15 1.1
      vertex 15 -15 1.1
      vertex 15 15 1.1
    endloop
  endfacet
  facet normal 0 0 1
    outer loop
      vertex 15 -15 1.1
      vertex -15 15 1.1
      vertex -15 -15 1.1
    endloop
  endfacet
  facet normal 0 -1 0
    outer loop
      vertex -15 -15 1.1
      vertex -2.88675 -15 0
      vertex 15 -15 1.1
    endloop
  endfacet
  facet normal 0 -1 0
    outer loop
      vertex -15 -15 -1.1
      vertex -2.88675 -15 0
      vertex -15 -15 1.1
    endloop
  endfacet
  facet normal 0 -1 -0
    outer loop
      vertex -2.88675 -15 0
      vertex -15 -15 -1.1
      vertex -2.88675 -15 -1.1
    endloop
  endfacet
  facet normal 0 -1 0
    outer loop
      vertex 2.88675 -15 0
      vertex 15 -15 1.1
      vertex -2.88675 -15 0
    endloop
  endfacet
  facet normal 0 -1 0
    outer loop
      vertex 15 -15 -1.1
      vertex 2.88675 -15 0
      vertex 2.88675 -15 -1.1
    endloop
  endfacet
  facet normal 0 -1 0
    outer loop
      vertex 2.88675 -15 0
      vertex 15 -15 -1.1
      vertex 15 -15 1.1
    endloop
  endfacet
endsolid OpenSCAD_Model
