solid OpenSCAD_Model
  facet normal -1 0 0
    outer loop
      vertex -15 -2.88675 -1.1
      vertex -15 -15 -1.1
      vertex -15 -2.88675 0
    endloop
  endfacet
  facet normal -1 0 0
    outer loop
      vertex -15 18 -1.1
      vertex -15 15 1.1
      vertex -15 18 2.2
    endloop
  endfacet
  facet normal -1 0 0
    outer loop
      vertex -15 2.88675 -1.1
      vertex -15 15 1.1
      vertex -15 18 -1.1
    endloop
  endfacet
  facet normal -1 0 0
    outer loop
      vertex -15 2.88675 0
      vertex -15 15 1.1
      vertex -15 2.88675 -1.1
    endloop
  endfacet
  facet normal -1 0 0
    outer loop
      vertex -15 -2.88675 0
      vertex -15 15 1.1
      vertex -15 2.88675 0
    endloop
  endfacet
  facet normal -1 0 0
    outer loop
      vertex -15 -2.88675 0
      vertex -15 -15 1.1
      vertex -15 15 1.1
    endloop
  endfacet
  facet normal -1 0 0
    outer loop
      vertex -15 -15 1.1
      vertex -15 -2.88675 0
      vertex -15 -15 -1.1
    endloop
  endfacet
  facet normal -1 -0 0
    outer loop
      vertex -15 18 2.2
      vertex -15 15 1.1
      vertex -15 15 2.2
    endloop
  endfacet
  facet normal -0 0 1
    outer loop
      vertex -15 18 2.2
      vertex 15 17.997 2.2
      vertex 15 18 2.2
    endloop
  endfacet
  facet normal 0 0 1
    outer loop
      vertex 15 17.997 2.2
      vertex 15 15 2.2
      vertex 15 -15 2.2
    endloop
  endfacet
  facet normal 0 0 1
    outer loop
      vertex 15 17.997 2.2
      vertex -15 18 2.2
      vertex 15 15 2.2
    endloop
  endfacet
  facet normal 0 0 1
    outer loop
      vertex 15 15 2.2
      vertex -15 18 2.2
      vertex -15 15 2.2
    endloop
  endfacet
  facet normal 0 0 1
    outer loop
      vertex 15 17.997 2.2
      vertex 18 15 2.2
      vertex 17.9879 15.2689 2.2
    endloop
  endfacet
  facet normal 0 0 1
    outer loop
      vertex 15 17.997 2.2
      vertex 17.9879 15.2689 2.2
      vertex 17.9518 15.5357 2.2
    endloop
  endfacet
  facet normal 0 0 1
    outer loop
      vertex 15 17.997 2.2
      vertex 17.9518 15.5357 2.2
      vertex 17.8919 15.7981 2.2
    endloop
  endfacet
  facet normal 0 0 1
    outer loop
      vertex 15 17.997 2.2
      vertex 17.8919 15.7981 2.2
      vertex 17.8087 16.0541 2.2
    endloop
  endfacet
  facet normal 0 0 1
    outer loop
      vertex 15 17.997 2.2
      vertex 17.8087 16.0541 2.2
      vertex 17.7029 16.3017 2.2
    endloop
  endfacet
  facet normal 0 0 1
    outer loop
      vertex 15 17.997 2.2
      vertex 17.7029 16.3017 2.2
      vertex 17.5753 16.5387 2.2
    endloop
  endfacet
  facet normal 0 0 1
    outer loop
      vertex 15 17.997 2.2
      vertex 17.5753 16.5387 2.2
      vertex 17.4271 16.7634 2.2
    endloop
  endfacet
  facet normal 0 0 1
    outer loop
      vertex 15 17.997 2.2
      vertex 17.4271 16.7634 2.2
      vertex 17.2592 16.9738 2.2
    endloop
  endfacet
  facet normal 0 0 1
    outer loop
      vertex 15 17.997 2.2
      vertex 17.2592 16.9738 2.2
      vertex 17.0732 17.1684 2.2
    endloop
  endfacet
  facet normal 0 0 1
    outer loop
      vertex 15 17.997 2.2
      vertex 17.0732 17.1684 2.2
      vertex 16.8705 17.3455 2.2
    endloop
  endfacet
  facet normal 0 0 1
    outer loop
      vertex 15 17.997 2.2
      vertex 16.8705 17.3455 2.2
      vertex 16.6527 17.5037 2.2
    endloop
  endfacet
  facet normal 0 0 1
    outer loop
      vertex 15 17.997 2.2
      vertex 16.6527 17.5037 2.2
      vertex 16.4216 17.6418 2.2
    endloop
  endfacet
  facet normal 0 0 1
    outer loop
      vertex 15 17.997 2.2
      vertex 16.4216 17.6418 2.2
      vertex 16.1791 17.7586 2.2
    endloop
  endfacet
  facet normal 0 0 1
    outer loop
      vertex 15 17.997 2.2
      vertex 16.1791 17.7586 2.2
      vertex 15.9271 17.8532 2.2
    endloop
  endfacet
  facet normal 0 0 1
    outer loop
      vertex 15 17.997 2.2
      vertex 15.9271 17.8532 2.2
      vertex 15.6676 17.9248 2.2
    endloop
  endfacet
  facet normal 0 0 1
    outer loop
      vertex 15 17.997 2.2
      vertex 15.6676 17.9248 2.2
      vertex 15.4027 17.9728 2.2
    endloop
  endfacet
  facet normal -0 0 1
    outer loop
      vertex 15 17.997 2.2
      vertex 15.4027 17.9728 2.2
      vertex 15.1346 17.997 2.2
    endloop
  endfacet
  facet normal 0 0 1
    outer loop
      vertex 18 15 2.2
      vertex 15 17.997 2.2
      vertex 15 -15 2.2
    endloop
  endfacet
  facet normal 0 0 1
    outer loop
      vertex 18 15 2.2
      vertex 15 -15 2.2
      vertex 18 -15 2.2
    endloop
  endfacet
  facet normal 1 -0 0
    outer loop
      vertex 15 17.997 2.2
      vertex 15 18 -1.1
      vertex 15 18 2.2
    endloop
  endfacet
  facet normal 1 0 0
    outer loop
      vertex 15 18 -1.1
      vertex 15 17.997 2.2
      vertex 15 17.997 -1.1
    endloop
  endfacet
  facet normal 0 0 -1
    outer loop
      vertex -17.5 -4.33013 -1.1
      vertex -15 2.88675 -1.1
      vertex -15 -2.88675 -1.1
    endloop
  endfacet
  facet normal -0 0 -1
    outer loop
      vertex -15 2.88675 -1.1
      vertex -17.5 -4.33013 -1.1
      vertex -17.5 4.33013 -1.1
    endloop
  endfacet
  facet normal 0 0 -1
    outer loop
      vertex 4.33013 -17.5 -1.1
      vertex -2.88675 -15 -1.1
      vertex 2.88675 -15 -1.1
    endloop
  endfacet
  facet normal 0 -0 -1
    outer loop
      vertex -2.88675 -15 -1.1
      vertex 4.33013 -17.5 -1.1
      vertex -4.33013 -17.5 -1.1
    endloop
  endfacet
  facet normal -0 0 -1
    outer loop
      vertex 15 -15 -1.1
      vertex 2.88675 -15 -1.1
      vertex 15 17.997 -1.1
    endloop
  endfacet
  facet normal 0 0 -1
    outer loop
      vertex -15 2.88675 -1.1
      vertex 15 17.997 -1.1
      vertex 2.88675 -15 -1.1
    endloop
  endfacet
  facet normal 0 0 -1
    outer loop
      vertex -15 2.88675 -1.1
      vertex 2.88675 -15 -1.1
      vertex -2.88675 -15 -1.1
    endloop
  endfacet
  facet normal 0 0 -1
    outer loop
      vertex -15 -2.88675 -1.1
      vertex -2.88675 -15 -1.1
      vertex -15 -15 -1.1
    endloop
  endfacet
  facet normal 0 0 -1
    outer loop
      vertex -15 2.88675 -1.1
      vertex -2.88675 -15 -1.1
      vertex -15 -2.88675 -1.1
    endloop
  endfacet
  facet normal 0 0 -1
    outer loop
      vertex -15 18 -1.1
      vertex 15 17.997 -1.1
      vertex -15 2.88675 -1.1
    endloop
  endfacet
  facet normal 0 0 -1
    outer loop
      vertex 15 17.997 -1.1
      vertex -15 18 -1.1
      vertex 15 18 -1.1
    endloop
  endfacet
  facet normal 0 0 -1
    outer loop
      vertex 15 -15 -1.1
      vertex 18 15 -1.1
      vertex 18 -15 -1.1
    endloop
  endfacet
  facet normal 0 0 -1
    outer loop
      vertex 15 17.997 -1.1
      vertex 18 15 -1.1
      vertex 15 -15 -1.1
    endloop
  endfacet
  facet normal 0 0 -1
    outer loop
      vertex 18 15 -1.1
      vertex 15 17.997 -1.1
      vertex 17.9879 15.2689 -1.1
    endloop
  endfacet
  facet normal 0 0 -1
    outer loop
      vertex 17.9879 15.2689 -1.1
      vertex 15 17.997 -1.1
      vertex 17.9518 15.5357 -1.1
    endloop
  endfacet
  facet normal 0 0 -1
    outer loop
      vertex 17.9518 15.5357 -1.1
      vertex 15 17.997 -1.1
      vertex 17.8919 15.7981 -1.1
    endloop
  endfacet
  facet normal 0 0 -1
    outer loop
      vertex 17.8919 15.7981 -1.1
      vertex 15 17.997 -1.1
      vertex 17.8087 16.0541 -1.1
    endloop
  endfacet
  facet normal 0 0 -1
    outer loop
      vertex 17.8087 16.0541 -1.1
      vertex 15 17.997 -1.1
      vertex 17.7029 16.3017 -1.1
    endloop
  endfacet
  facet normal 0 0 -1
    outer loop
      vertex 17.7029 16.3017 -1.1
      vertex 15 17.997 -1.1
      vertex 17.5753 16.5387 -1.1
    endloop
  endfacet
  facet normal 0 0 -1
    outer loop
      vertex 17.5753 16.5387 -1.1
      vertex 15 17.997 -1.1
      vertex 17.4271 16.7634 -1.1
    endloop
  endfacet
  facet normal 0 0 -1
    outer loop
      vertex 17.4271 16.7634 -1.1
      vertex 15 17.997 -1.1
      vertex 17.2592 16.9738 -1.1
    endloop
  endfacet
  facet normal 0 0 -1
    outer loop
      vertex 17.2592 16.9738 -1.1
      vertex 15 17.997 -1.1
      vertex 17.0732 17.1684 -1.1
    endloop
  endfacet
  facet normal 0 0 -1
    outer loop
      vertex 17.0732 17.1684 -1.1
      vertex 15 17.997 -1.1
      vertex 16.8705 17.3455 -1.1
    endloop
  endfacet
  facet normal 0 0 -1
    outer loop
      vertex 16.8705 17.3455 -1.1
      vertex 15 17.997 -1.1
      vertex 16.6527 17.5037 -1.1
    endloop
  endfacet
  facet normal 0 0 -1
    outer loop
      vertex 16.6527 17.5037 -1.1
      vertex 15 17.997 -1.1
      vertex 16.4216 17.6418 -1.1
    endloop
  endfacet
  facet normal 0 0 -1
    outer loop
      vertex 16.4216 17.6418 -1.1
      vertex 15 17.997 -1.1
      vertex 16.1791 17.7586 -1.1
    endloop
  endfacet
  facet normal 0 0 -1
    outer loop
      vertex 16.1791 17.7586 -1.1
      vertex 15 17.997 -1.1
      vertex 15.9271 17.8532 -1.1
    endloop
  endfacet
  facet normal 0 0 -1
    outer loop
      vertex 15.9271 17.8532 -1.1
      vertex 15 17.997 -1.1
      vertex 15.6676 17.9248 -1.1
    endloop
  endfacet
  facet normal 0 0 -1
    outer loop
      vertex 15.6676 17.9248 -1.1
      vertex 15 17.997 -1.1
      vertex 15.4027 17.9728 -1.1
    endloop
  endfacet
  facet normal 0 0 -1
    outer loop
      vertex 15.4027 17.9728 -1.1
      vertex 15 17.997 -1.1
      vertex 15.1346 17.997 -1.1
    endloop
  endfacet
  facet normal 0 -1 0
    outer loop
      vertex -15 15 1.1
      vertex 15 15 2.2
      vertex -15 15 2.2
    endloop
  endfacet
  facet normal 0 -1 -0
    outer loop
      vertex 15 15 2.2
      vertex -15 15 1.1
      vertex 15 15 1.1
    endloop
  endfacet
  facet normal 0 1 -0
    outer loop
      vertex 15 18 -1.1
      vertex -15 18 2.2
      vertex 15 18 2.2
    endloop
  endfacet
  facet normal 0 1 0
    outer loop
      vertex -15 18 2.2
      vertex 15 18 -1.1
      vertex -15 18 -1.1
    endloop
  endfacet
  facet normal 0 -1 0
    outer loop
      vertex 15 -15 1.1
      vertex 18 -15 2.2
      vertex 15 -15 2.2
    endloop
  endfacet
  facet normal 0 -1 0
    outer loop
      vertex 18 -15 -1.1
      vertex 15 -15 1.1
      vertex 15 -15 -1.1
    endloop
  endfacet
  facet normal 0 -1 0
    outer loop
      vertex 15 -15 1.1
      vertex 18 -15 -1.1
      vertex 18 -15 2.2
    endloop
  endfacet
  facet normal 1 -0 0
    outer loop
      vertex 18 -15 2.2
      vertex 18 15 -1.1
      vertex 18 15 2.2
    endloop
  endfacet
  facet normal 1 0 0
    outer loop
      vertex 18 15 -1.1
      vertex 18 -15 2.2
      vertex 18 -15 -1.1
    endloop
  endfacet
  facet normal -1 -3.17891e-008 0
    outer loop
      vertex 15 -15 1.1
      vertex 15 15 2.2
      vertex 15 15 1.1
    endloop
  endfacet
  facet normal -1 -3.17891e-008 0
    outer loop
      vertex 15 15 2.2
      vertex 15 -15 1.1
      vertex 15 -15 2.2
    endloop
  endfacet
  facet normal 0.998993 0.0448658 0
    outer loop
      vertex 18 15 2.2
      vertex 17.9879 15.2689 -1.1
      vertex 17.9879 15.2689 2.2
    endloop
  endfacet
  facet normal 0.998993 0.0448658 0
    outer loop
      vertex 17.9879 15.2689 -1.1
      vertex 18 15 2.2
      vertex 18 15 -1.1
    endloop
  endfacet
  facet normal 0.657933 0.753077 -0
    outer loop
      vertex 17.0732 17.1684 -1.1
      vertex 16.8705 17.3455 2.2
      vertex 17.0732 17.1684 2.2
    endloop
  endfacet
  facet normal 0.657933 0.753077 0
    outer loop
      vertex 16.8705 17.3455 2.2
      vertex 17.0732 17.1684 -1.1
      vertex 16.8705 17.3455 -1.1
    endloop
  endfacet
  facet normal 0.880595 0.473869 0
    outer loop
      vertex 17.7029 16.3017 2.2
      vertex 17.5753 16.5387 -1.1
      vertex 17.5753 16.5387 2.2
    endloop
  endfacet
  facet normal 0.880595 0.473869 0
    outer loop
      vertex 17.5753 16.5387 -1.1
      vertex 17.7029 16.3017 2.2
      vertex 17.7029 16.3017 -1.1
    endloop
  endfacet
  facet normal 0.26604 0.963962 -0
    outer loop
      vertex 15.9271 17.8532 -1.1
      vertex 15.6676 17.9248 2.2
      vertex 15.9271 17.8532 2.2
    endloop
  endfacet
  facet normal 0.26604 0.963962 0
    outer loop
      vertex 15.6676 17.9248 2.2
      vertex 15.9271 17.8532 -1.1
      vertex 15.6676 17.9248 -1.1
    endloop
  endfacet
  facet normal 0.512898 0.85845 -0
    outer loop
      vertex 16.6527 17.5037 -1.1
      vertex 16.4216 17.6418 2.2
      vertex 16.6527 17.5037 2.2
    endloop
  endfacet
  facet normal 0.512898 0.85845 0
    outer loop
      vertex 16.4216 17.6418 2.2
      vertex 16.6527 17.5037 -1.1
      vertex 16.4216 17.6418 -1.1
    endloop
  endfacet
  facet normal 0.951057 0.309016 0
    outer loop
      vertex 17.8919 15.7981 2.2
      vertex 17.8087 16.0541 -1.1
      vertex 17.8087 16.0541 2.2
    endloop
  endfacet
  facet normal 0.951057 0.309016 0
    outer loop
      vertex 17.8087 16.0541 -1.1
      vertex 17.8919 15.7981 2.2
      vertex 17.8919 15.7981 -1.1
    endloop
  endfacet
  facet normal 0.990949 0.134235 0
    outer loop
      vertex 17.9879 15.2689 2.2
      vertex 17.9518 15.5357 -1.1
      vertex 17.9518 15.5357 2.2
    endloop
  endfacet
  facet normal 0.990949 0.134235 0
    outer loop
      vertex 17.9518 15.5357 -1.1
      vertex 17.9879 15.2689 2.2
      vertex 17.9879 15.2689 -1.1
    endloop
  endfacet
  facet normal 0.919528 0.393025 0
    outer loop
      vertex 17.8087 16.0541 2.2
      vertex 17.7029 16.3017 -1.1
      vertex 17.7029 16.3017 2.2
    endloop
  endfacet
  facet normal 0.919528 0.393025 0
    outer loop
      vertex 17.7029 16.3017 -1.1
      vertex 17.8087 16.0541 2.2
      vertex 17.8087 16.0541 -1.1
    endloop
  endfacet
  facet normal 0.781827 0.623495 0
    outer loop
      vertex 17.4271 16.7634 2.2
      vertex 17.2592 16.9738 -1.1
      vertex 17.2592 16.9738 2.2
    endloop
  endfacet
  facet normal 0.781827 0.623495 0
    outer loop
      vertex 17.2592 16.9738 -1.1
      vertex 17.4271 16.7634 2.2
      vertex 17.4271 16.7634 -1.1
    endloop
  endfacet
  facet normal 0.7228 0.691057 0
    outer loop
      vertex 17.2592 16.9738 2.2
      vertex 17.0732 17.1684 -1.1
      vertex 17.0732 17.1684 2.2
    endloop
  endfacet
  facet normal 0.7228 0.691057 0
    outer loop
      vertex 17.0732 17.1684 -1.1
      vertex 17.2592 16.9738 2.2
      vertex 17.2592 16.9738 -1.1
    endloop
  endfacet
  facet normal 0.834576 0.550893 0
    outer loop
      vertex 17.5753 16.5387 2.2
      vertex 17.4271 16.7634 -1.1
      vertex 17.4271 16.7634 2.2
    endloop
  endfacet
  facet normal 0.834576 0.550893 0
    outer loop
      vertex 17.4271 16.7634 -1.1
      vertex 17.5753 16.5387 2.2
      vertex 17.5753 16.5387 -1.1
    endloop
  endfacet
  facet normal 0.0896391 0.995974 -0
    outer loop
      vertex 15.4027 17.9728 -1.1
      vertex 15.1346 17.997 2.2
      vertex 15.4027 17.9728 2.2
    endloop
  endfacet
  facet normal 0.0896391 0.995974 0
    outer loop
      vertex 15.1346 17.997 2.2
      vertex 15.4027 17.9728 -1.1
      vertex 15.1346 17.997 -1.1
    endloop
  endfacet
  facet normal 0.178556 0.98393 -0
    outer loop
      vertex 15.6676 17.9248 -1.1
      vertex 15.4027 17.9728 2.2
      vertex 15.6676 17.9248 2.2
    endloop
  endfacet
  facet normal 0.178556 0.98393 0
    outer loop
      vertex 15.4027 17.9728 2.2
      vertex 15.6676 17.9248 -1.1
      vertex 15.4027 17.9728 -1.1
    endloop
  endfacet
  facet normal 0 1 -0
    outer loop
      vertex 15.1346 17.997 -1.1
      vertex 15 17.997 2.2
      vertex 15.1346 17.997 2.2
    endloop
  endfacet
  facet normal 0 1 0
    outer loop
      vertex 15 17.997 2.2
      vertex 15.1346 17.997 -1.1
      vertex 15 17.997 -1.1
    endloop
  endfacet
  facet normal 0.587789 0.809014 -0
    outer loop
      vertex 16.8705 17.3455 -1.1
      vertex 16.6527 17.5037 2.2
      vertex 16.8705 17.3455 2.2
    endloop
  endfacet
  facet normal 0.587789 0.809014 0
    outer loop
      vertex 16.6527 17.5037 2.2
      vertex 16.8705 17.3455 -1.1
      vertex 16.6527 17.5037 -1.1
    endloop
  endfacet
  facet normal 0.974928 0.222521 0
    outer loop
      vertex 17.9518 15.5357 2.2
      vertex 17.8919 15.7981 -1.1
      vertex 17.8919 15.7981 2.2
    endloop
  endfacet
  facet normal 0.974928 0.222521 0
    outer loop
      vertex 17.8919 15.7981 -1.1
      vertex 17.9518 15.5357 2.2
      vertex 17.9518 15.5357 -1.1
    endloop
  endfacet
  facet normal 0.433883 0.900969 -0
    outer loop
      vertex 16.4216 17.6418 -1.1
      vertex 16.1791 17.7586 2.2
      vertex 16.4216 17.6418 2.2
    endloop
  endfacet
  facet normal 0.433883 0.900969 0
    outer loop
      vertex 16.1791 17.7586 2.2
      vertex 16.4216 17.6418 -1.1
      vertex 16.1791 17.7586 -1.1
    endloop
  endfacet
  facet normal 0.351374 0.936235 -0
    outer loop
      vertex 16.1791 17.7586 -1.1
      vertex 15.9271 17.8532 2.2
      vertex 16.1791 17.7586 2.2
    endloop
  endfacet
  facet normal 0.351374 0.936235 0
    outer loop
      vertex 15.9271 17.8532 2.2
      vertex 16.1791 17.7586 -1.1
      vertex 15.9271 17.8532 -1.1
    endloop
  endfacet
  facet normal -1 0 0
    outer loop
      vertex -17.5 -4.33013 -1.1
      vertex -17.5 4.33013 0
      vertex -17.5 4.33013 -1.1
    endloop
  endfacet
  facet normal -1 -0 0
    outer loop
      vertex -17.5 4.33013 0
      vertex -17.5 -4.33013 -1.1
      vertex -17.5 -4.33013 0
    endloop
  endfacet
  facet normal 0.5 0.866025 -0
    outer loop
      vertex -15 2.88675 -1.1
      vertex -17.5 4.33013 0
      vertex -15 2.88675 0
    endloop
  endfacet
  facet normal 0.5 0.866025 0
    outer loop
      vertex -17.5 4.33013 0
      vertex -15 2.88675 -1.1
      vertex -17.5 4.33013 -1.1
    endloop
  endfacet
  facet normal 0.5 -0.866025 0
    outer loop
      vertex -17.5 -4.33013 -1.1
      vertex -15 -2.88675 0
      vertex -17.5 -4.33013 0
    endloop
  endfacet
  facet normal 0.5 -0.866025 0
    outer loop
      vertex -15 -2.88675 0
      vertex -17.5 -4.33013 -1.1
      vertex -15 -2.88675 -1.1
    endloop
  endfacet
  facet normal 0 0 1
    outer loop
      vertex -17.5 4.33013 0
      vertex -15 -2.88675 0
      vertex -15 2.88675 0
    endloop
  endfacet
  facet normal 0 0 1
    outer loop
      vertex -15 -2.88675 0
      vertex -17.5 4.33013 0
      vertex -17.5 -4.33013 0
    endloop
  endfacet
  facet normal 0 -1 0
    outer loop
      vertex -4.33013 -17.5 -1.1
      vertex 4.33013 -17.5 0
      vertex -4.33013 -17.5 0
    endloop
  endfacet
  facet normal 0 -1 -0
    outer loop
      vertex 4.33013 -17.5 0
      vertex -4.33013 -17.5 -1.1
      vertex 4.33013 -17.5 -1.1
    endloop
  endfacet
  facet normal -0.866025 0.5 0
    outer loop
      vertex -4.33013 -17.5 -1.1
      vertex -2.88675 -15 0
      vertex -2.88675 -15 -1.1
    endloop
  endfacet
  facet normal -0.866025 0.5 0
    outer loop
      vertex -2.88675 -15 0
      vertex -4.33013 -17.5 -1.1
      vertex -4.33013 -17.5 0
    endloop
  endfacet
  facet normal -0 0 1
    outer loop
      vertex -2.88675 -15 0
      vertex 4.33013 -17.5 0
      vertex 2.88675 -15 0
    endloop
  endfacet
  facet normal 0 0 1
    outer loop
      vertex 4.33013 -17.5 0
      vertex -2.88675 -15 0
      vertex -4.33013 -17.5 0
    endloop
  endfacet
  facet normal 0.866025 0.5 0
    outer loop
      vertex 4.33013 -17.5 0
      vertex 2.88675 -15 -1.1
      vertex 2.88675 -15 0
    endloop
  endfacet
  facet normal 0.866025 0.5 0
    outer loop
      vertex 2.88675 -15 -1.1
      vertex 4.33013 -17.5 0
      vertex 4.33013 -17.5 -1.1
    endloop
  endfacet
  facet normal -0 0 1
    outer loop
      vertex -15 15 1.1
      vertex 15 -15 1.1
      vertex 15 15 1.1
    endloop
  endfacet
  facet normal 0 0 1
    outer loop
      vertex -15 -15 1.1
      vertex 15 -15 1.1
      vertex -15 15 1.1
    endloop
  endfacet
  facet normal 0 -1 0
    outer loop
      vertex -15 -15 1.1
      vertex -2.88675 -15 0
      vertex 15 -15 1.1
    endloop
  endfacet
  facet normal 0 -1 0
    outer loop
      vertex -15 -15 -1.1
      vertex -2.88675 -15 0
      vertex -15 -15 1.1
    endloop
  endfacet
  facet normal 0 -1 -0
    outer loop
      vertex -2.88675 -15 0
      vertex -15 -15 -1.1
      vertex -2.88675 -15 -1.1
    endloop
  endfacet
  facet normal 0 -1 0
    outer loop
      vertex 2.88675 -15 0
      vertex 15 -15 1.1
      vertex -2.88675 -15 0
    endloop
  endfacet
  facet normal 0 -1 0
    outer loop
      vertex 15 -15 -1.1
      vertex 2.88675 -15 0
      vertex 2.88675 -15 -1.1
    endloop
  endfacet
  facet normal 0 -1 0
    outer loop
      vertex 2.88675 -15 0
      vertex 15 -15 -1.1
      vertex 15 -15 1.1
    endloop
  endfacet
endsolid OpenSCAD_Model
